<svg xmlns="http://www.w3.org/2000/svg" xmlns:xlink="http://www.w3.org/1999/xlink" width="500" zoomAndPan="magnify" viewBox="0 0 375 374.999991" height="500" preserveAspectRatio="xMidYMid meet" version="1.0"><defs><g/><clipPath id="122a0d045c"><path d="M 40.847656 172.523438 L 334.097656 172.523438 L 334.097656 202.523438 L 40.847656 202.523438 Z M 40.847656 172.523438 " clip-rule="nonzero"/></clipPath></defs><g fill="#231f20" fill-opacity="1"><g transform="translate(60.989602, 232.758926)"><g><path d="M 95.917969 -89.796875 L 68.113281 -89.796875 L 51.882812 -49.355469 L 51.21875 -49.355469 L 31.929688 -90.066406 L 3.191406 -89.796875 L 3.191406 -89 L 10.644531 -75.695312 L 10.644531 0 L 38.714844 0 L 38.714844 -0.664062 C 22.21875 -14.101562 13.570312 -31.796875 13.570312 -60.398438 L 13.570312 -69.3125 L 14.234375 -69.3125 L 40.441406 -15.832031 L 41.90625 -15.832031 L 64.121094 -70.507812 L 64.921875 -70.507812 L 65.054688 -7.714844 L 57.871094 -0.796875 L 57.871094 0 L 90.996094 0 L 90.863281 -82.082031 L 95.917969 -89 Z M 95.917969 -89.796875 "/></g></g></g><g fill="#231f20" fill-opacity="1"><g transform="translate(157.703227, 232.758926)"><g><path d="M 51.882812 -46.695312 C 71.441406 -49.488281 81.949219 -58.003906 81.949219 -70.242188 C 81.949219 -81.949219 72.105469 -89.796875 45.632812 -89.796875 L 4.257812 -89.796875 L 4.257812 -89 L 11.441406 -82.082031 L 11.441406 -7.714844 L 4.257812 -0.796875 L 4.257812 0 L 43.101562 0 C 72.503906 0 86.605469 -13.96875 86.605469 -26.738281 C 86.605469 -38.3125 78.359375 -48.425781 51.75 -45.765625 Z M 41.375 -87.535156 C 54.675781 -87.535156 55.875 -77.691406 55.875 -67.316406 C 55.875 -54.277344 53.082031 -47.492188 41.109375 -47.359375 L 37.117188 -47.359375 L 37.117188 -87.535156 Z M 41.375 -2.261719 C 38.445312 -2.128906 38.179688 -2.261719 37.117188 -2.394531 L 37.117188 -44.964844 L 41.507812 -44.964844 C 52.546875 -44.964844 58.800781 -39.910156 58.800781 -24.078125 C 58.800781 -9.046875 53.082031 -2.660156 41.375 -2.261719 Z M 41.375 -2.261719 "/></g></g></g><g fill="#231f20" fill-opacity="1"><g transform="translate(243.109197, 232.758926)"><g><path d="M 2.925781 -89 L 2.925781 -56.140625 L 3.726562 -56.140625 C 6.121094 -64.65625 11.574219 -68.644531 19.15625 -68.644531 L 57.605469 -68.644531 L 11.175781 -0.796875 L 11.175781 0 L 43.101562 0 L 60.132812 -68.378906 L 70.507812 -89.132812 L 70.507812 -89.796875 L 3.726562 -89.796875 Z M 2.925781 -89 "/></g></g></g><g clip-path="url(#122a0d045c)"><path fill="#ffffff" d="M 40.859375 172.523438 L 334.085938 172.523438 L 334.085938 202.523438 L 40.859375 202.523438 L 40.859375 172.523438 " fill-opacity="1" fill-rule="nonzero"/></g><g fill="#231f20" fill-opacity="1"><g transform="translate(84.011911, 191.082643)"><g><path d="M 0.480469 0 L 1.761719 0 L 1.761719 -5.40625 L 1.78125 -5.40625 L 4.734375 0 L 6.066406 0 L 9 -5.40625 L 9.019531 -5.40625 L 9.019531 0 L 10.304688 0 L 10.304688 -6.796875 L 8.433594 -6.796875 L 5.394531 -1.199219 L 5.386719 -1.199219 L 2.328125 -6.796875 L 0.480469 -6.796875 Z M 0.480469 0 "/></g></g></g><g fill="#231f20" fill-opacity="1"><g transform="translate(102.451409, 191.082643)"><g><path d="M 0.0390625 0 L 1.429688 0 L 2.203125 -1.484375 L 6.460938 -1.484375 L 7.238281 0 L 8.636719 0 L 5.128906 -6.796875 L 3.574219 -6.796875 Z M 2.597656 -2.414062 L 4.332031 -5.828125 L 4.351562 -5.828125 L 6.078125 -2.414062 Z M 2.597656 -2.414062 "/></g></g></g><g fill="#231f20" fill-opacity="1"><g transform="translate(118.784564, 191.082643)"><g><path d="M 0.480469 0 L 4.746094 0 C 7.3125 0 8.742188 -1.21875 8.742188 -3.394531 C 8.742188 -5.578125 7.3125 -6.796875 4.746094 -6.796875 L 0.480469 -6.796875 Z M 1.792969 -1.007812 L 1.792969 -5.769531 L 4.628906 -5.769531 C 6.429688 -5.769531 7.4375 -4.925781 7.4375 -3.394531 C 7.4375 -1.859375 6.429688 -1.007812 4.628906 -1.007812 Z M 1.792969 -1.007812 "/></g></g></g><g fill="#231f20" fill-opacity="1"><g transform="translate(135.548567, 191.082643)"><g><path d="M 0.480469 0 L 7.332031 0 L 7.332031 -0.96875 L 1.773438 -0.96875 L 1.773438 -3.046875 L 6.851562 -3.046875 L 6.851562 -3.9375 L 1.773438 -3.9375 L 1.773438 -5.816406 L 7.238281 -5.816406 L 7.238281 -6.796875 L 0.480469 -6.796875 Z M 0.480469 0 "/></g></g></g><g fill="#231f20" fill-opacity="1"><g transform="translate(150.732816, 191.082643)"><g/></g></g><g fill="#231f20" fill-opacity="1"><g transform="translate(161.168248, 191.082643)"><g><path d="M 0.480469 0 L 5.695312 0 C 7.199219 0 8.175781 -0.746094 8.175781 -1.886719 C 8.175781 -2.664062 7.667969 -3.296875 6.890625 -3.480469 L 6.890625 -3.488281 C 7.554688 -3.691406 7.984375 -4.253906 7.984375 -4.945312 C 7.984375 -6.066406 7.0625 -6.796875 5.65625 -6.796875 L 0.480469 -6.796875 Z M 1.8125 -3.910156 L 1.8125 -5.894531 L 5.328125 -5.894531 C 6.132812 -5.894531 6.652344 -5.511719 6.652344 -4.898438 C 6.652344 -4.292969 6.132812 -3.910156 5.339844 -3.910156 Z M 1.8125 -0.902344 L 1.8125 -3.078125 L 5.347656 -3.078125 C 6.25 -3.078125 6.84375 -2.636719 6.84375 -1.992188 C 6.84375 -1.332031 6.25 -0.902344 5.347656 -0.902344 Z M 1.8125 -0.902344 "/></g></g></g><g fill="#231f20" fill-opacity="1"><g transform="translate(177.204613, 191.082643)"><g><path d="M 3.375 0 L 4.707031 0 L 4.707031 -2.464844 L 8.042969 -6.796875 L 6.519531 -6.796875 L 4.042969 -3.480469 L 4.035156 -3.480469 L 1.523438 -6.796875 L -0.0078125 -6.796875 L 3.375 -2.464844 Z M 3.375 0 "/></g></g></g><g fill="#231f20" fill-opacity="1"><g transform="translate(192.905871, 191.082643)"><g/></g></g><g fill="#231f20" fill-opacity="1"><g transform="translate(203.341303, 191.082643)"><g><path d="M 4.378906 0.230469 C 6.5 0.230469 7.917969 -0.652344 7.917969 -1.957031 C 7.917969 -3.046875 7.046875 -3.632812 5.023438 -3.910156 L 3.429688 -4.132812 C 2.367188 -4.273438 1.917969 -4.542969 1.917969 -5.003906 C 1.917969 -5.625 2.761719 -6.058594 3.9375 -6.058594 C 5.117188 -6.058594 6.203125 -5.578125 6.730469 -4.898438 L 7.351562 -5.675781 C 6.746094 -6.46875 5.433594 -7.027344 3.929688 -7.027344 C 1.984375 -7.027344 0.605469 -6.230469 0.605469 -4.917969 C 0.605469 -3.863281 1.359375 -3.324219 3.132812 -3.097656 L 4.746094 -2.847656 C 6.046875 -2.664062 6.605469 -2.347656 6.605469 -1.839844 C 6.605469 -1.21875 5.742188 -0.757812 4.449219 -0.757812 C 2.867188 -0.757812 1.410156 -1.429688 0.910156 -2.394531 L 0.191406 -1.628906 C 0.832031 -0.535156 2.492188 0.230469 4.378906 0.230469 Z M 4.378906 0.230469 "/></g></g></g><g fill="#231f20" fill-opacity="1"><g transform="translate(219.10959, 191.082643)"><g><path d="M 0.480469 0 L 7.332031 0 L 7.332031 -0.96875 L 1.773438 -0.96875 L 1.773438 -3.046875 L 6.851562 -3.046875 L 6.851562 -3.9375 L 1.773438 -3.9375 L 1.773438 -5.816406 L 7.238281 -5.816406 L 7.238281 -6.796875 L 0.480469 -6.796875 Z M 0.480469 0 "/></g></g></g><g fill="#231f20" fill-opacity="1"><g transform="translate(234.293839, 191.082643)"><g><path d="M 3.519531 0 L 5.003906 0 L 8.53125 -6.796875 L 7.101562 -6.796875 L 4.273438 -1.246094 L 4.253906 -1.246094 L 1.417969 -6.796875 L 0 -6.796875 Z M 3.519531 0 "/></g></g></g><g fill="#231f20" fill-opacity="1"><g transform="translate(250.483383, 191.082643)"><g><path d="M 0.480469 0 L 7.332031 0 L 7.332031 -0.96875 L 1.773438 -0.96875 L 1.773438 -3.046875 L 6.851562 -3.046875 L 6.851562 -3.9375 L 1.773438 -3.9375 L 1.773438 -5.816406 L 7.238281 -5.816406 L 7.238281 -6.796875 L 0.480469 -6.796875 Z M 0.480469 0 "/></g></g></g><g fill="#231f20" fill-opacity="1"><g transform="translate(265.667632, 191.082643)"><g><path d="M 7.582031 0.191406 C 8.109375 0.191406 8.597656 -0.0664062 8.886719 -0.421875 L 8.484375 -1.054688 C 8.339844 -0.832031 8.128906 -0.679688 7.917969 -0.679688 C 7.660156 -0.679688 7.523438 -0.863281 7.410156 -1.09375 L 6.929688 -2.0625 C 6.765625 -2.425781 6.546875 -2.703125 6.21875 -2.875 L 6.21875 -2.886719 C 7.464844 -3.019531 8.234375 -3.746094 8.234375 -4.765625 C 8.234375 -6.019531 7.246094 -6.796875 5.65625 -6.796875 L 0.480469 -6.796875 L 0.480469 0 L 1.8125 0 L 1.8125 -2.636719 L 4.582031 -2.636719 C 5.0625 -2.636719 5.464844 -2.339844 5.695312 -1.859375 L 6.210938 -0.757812 C 6.46875 -0.25 6.863281 0.191406 7.582031 0.191406 Z M 1.8125 -3.554688 L 1.8125 -5.847656 L 5.378906 -5.847656 C 6.308594 -5.847656 6.902344 -5.394531 6.902344 -4.6875 C 6.902344 -4.007812 6.308594 -3.554688 5.378906 -3.554688 Z M 1.8125 -3.554688 "/></g></g></g><g fill="#231f20" fill-opacity="1"><g transform="translate(282.21144, 191.082643)"><g><path d="M 0.480469 0 L 1.761719 0 L 1.761719 -5.5 L 1.773438 -5.5 L 6.640625 0 L 8.308594 0 L 8.308594 -6.796875 L 7.015625 -6.796875 L 7.015625 -1.304688 L 7.007812 -1.304688 L 2.148438 -6.796875 L 0.480469 -6.796875 Z M 0.480469 0 "/></g></g></g></svg>